<svg xmlns="http://www.w3.org/2000/svg" width="44" height="44" viewBox="0 0 44 44" fill="none">
  <path d="M22 27.75C22 29.3413 22.6321 30.8674 23.7574 31.9926C24.8826 33.1179 26.4087 33.75 28 33.75C29.5913 33.75 31.1174 33.1179 32.2426 31.9926C33.3679 30.8674 34 29.3413 34 27.75C34 26.1587 33.3679 24.6326 32.2426 23.5074C31.1174 22.3821 29.5913 21.75 28 21.75C26.4087 21.75 24.8826 22.3821 23.7574 23.5074C22.6321 24.6326 22 26.1587 22 27.75Z" stroke="#4F46E5" stroke-width="3" stroke-linecap="round" stroke-linejoin="round"/>
  <path d="M24 32.7495V41.7495L28 38.7495L32 41.7495V32.7495" stroke="#4F46E5" stroke-width="3" stroke-linecap="round" stroke-linejoin="round"/>
  <path d="M18 35.75H8C6.93913 35.75 5.92172 35.3286 5.17157 34.5784C4.42143 33.8283 4 32.8109 4 31.75V11.75C4 9.55 5.8 7.75 8 7.75H36C37.0609 7.75 38.0783 8.17143 38.8284 8.92157C39.5786 9.67172 40 10.6891 40 11.75V31.75C39.9993 32.4514 39.8141 33.1404 39.4631 33.7477C39.112 34.355 38.6075 34.8593 38 35.21M10 15.75H34M10 21.75H16M10 27.75H14" stroke="#4F46E5" stroke-width="3" stroke-linecap="round" stroke-linejoin="round"/>
</svg>