<svg xmlns="http://www.w3.org/2000/svg" width="44" height="44" viewBox="0 0 44 44" fill="none">
  <path d="M19.8266 31.4444C19.6084 31.4444 19.4215 31.3815 19.2657 31.2556C19.1099 31.1296 19.0008 30.9722 18.9385 30.7833C18.5023 29.4611 17.9725 28.3593 17.3493 27.4778C16.7261 26.5963 16.1029 25.7463 15.4797 24.9278C14.8565 24.1093 14.3343 23.2593 13.913 22.3778C13.4917 21.4963 13.2817 20.4259 13.2829 19.1667C13.2829 17.3407 13.9217 15.7824 15.1993 14.4917C16.4768 13.2009 18.0193 12.5556 19.8266 12.5556C21.6339 12.5556 23.1763 13.2009 24.4539 14.4917C25.7314 15.7824 26.3702 17.3407 26.3702 19.1667C26.3702 20.4259 26.1596 21.4963 25.7383 22.3778C25.317 23.2593 24.7954 24.1093 24.1734 24.9278C23.5515 25.7463 22.9283 26.5963 22.3038 27.4778C21.6794 28.3593 21.1496 29.4611 20.7146 30.7833C20.6523 30.9722 20.5433 31.1296 20.3875 31.2556C20.2317 31.3815 20.0447 31.4444 19.8266 31.4444ZM19.8266 26.1556C20.107 25.7148 20.3875 25.3056 20.6679 24.9278C20.9483 24.55 21.2132 24.188 21.4625 23.8417C22.1792 22.8972 22.7089 22.1102 23.0517 21.4806C23.3944 20.8509 23.5658 20.0796 23.5658 19.1667C23.5658 18.1278 23.2 17.2387 22.4683 16.4996C21.7367 15.7604 20.8561 15.3902 19.8266 15.3889C18.797 15.3876 17.9171 15.7579 17.1867 16.4996C16.4563 17.2413 16.0898 18.1303 16.0873 19.1667C16.0873 20.0796 16.2587 20.8509 16.6015 21.4806C16.9442 22.1102 17.474 22.8972 18.1907 23.8417C18.4399 24.188 18.7048 24.55 18.9852 24.9278C19.2657 25.3056 19.5461 25.7148 19.8266 26.1556ZM19.8266 21.5278C20.4809 21.5278 21.0343 21.2992 21.4868 20.8421C21.9392 20.385 22.1648 19.8265 22.1636 19.1667C22.1623 18.5068 21.9361 17.9477 21.4849 17.4893C21.0337 17.031 20.4809 16.803 19.8266 16.8056C19.1722 16.8081 18.6188 17.0366 18.1663 17.4912C17.7139 17.9458 17.4883 18.5043 17.4895 19.1667C17.4908 19.829 17.717 20.3881 18.1682 20.844C18.6194 21.2999 19.1722 21.5278 19.8266 21.5278ZM19.8266 39C15.1525 39 11.1796 37.3472 7.90775 34.0417C4.63592 30.7361 3 26.7222 3 22C3 19.6389 3.44435 17.4276 4.33304 15.3662C5.22173 13.3048 6.42078 11.5104 7.93018 9.98289C9.43959 8.45541 11.2157 7.24337 13.2586 6.34678C15.3015 5.45019 17.4908 5.00126 19.8266 5C22.1623 4.99874 24.3517 5.44767 26.3945 6.34678C28.4374 7.24589 30.2135 8.4573 31.723 9.981C33.2324 11.5047 34.432 13.2992 35.322 15.3643C36.2119 17.4295 36.6556 19.6414 36.6531 22V22.3778L37.8216 21.1972C38.1644 20.8194 38.5932 20.6306 39.1079 20.6306C39.6227 20.6306 40.0664 20.8037 40.4391 21.15C40.813 21.5278 41 21.9761 41 22.4949C41 23.0137 40.813 23.4626 40.4391 23.8417L36.0923 28.2333C35.7183 28.6111 35.2821 28.8 34.7835 28.8C34.285 28.8 33.8487 28.6111 33.4748 28.2333L29.0812 23.7944C28.7073 23.4167 28.5284 22.9759 28.5446 22.4722C28.5608 21.9685 28.7552 21.5278 29.1279 21.15C29.5018 20.8037 29.9381 20.623 30.4367 20.6079C30.9352 20.5928 31.3715 20.7735 31.7454 21.15L32.9139 22.3306V22C32.9139 18.3481 31.6363 15.2315 29.0812 12.65C26.526 10.0685 23.4412 8.77778 19.8266 8.77778C16.212 8.77778 13.1271 10.0685 10.572 12.65C8.01681 15.2315 6.73924 18.3481 6.73924 22C6.7704 25.6519 8.05607 28.7685 10.5963 31.35C13.1364 33.9315 16.2132 35.2222 19.8266 35.2222C21.2911 35.2222 22.6703 35.0019 23.964 34.5611C25.2578 34.1204 26.4494 33.4907 27.5387 32.6722C27.975 32.3574 28.4505 32.2 28.9653 32.2C29.48 32.2 29.9082 32.3731 30.2497 32.7194C30.6236 33.0972 30.8106 33.5537 30.8106 34.0889C30.8106 34.6241 30.5925 35.0648 30.1562 35.4111C28.7228 36.5444 27.1337 37.4259 25.3887 38.0556C23.6437 38.6852 21.7897 39 19.8266 39Z" fill="#4F46E5"/>
</svg>