<svg xmlns="http://www.w3.org/2000/svg" width="44" height="44" viewBox="0 0 44 44" fill="none">
  <path d="M22 34.4614V39.9998M28.9231 31.6921V37.2306M15.077 31.6921V37.2306M24.9465 12.0002C24.7887 11.5492 24.4943 11.1585 24.1042 10.8826C23.7141 10.6066 23.2477 10.4591 22.7699 10.4606H20.9837C20.4772 10.4624 19.989 10.6507 19.6126 10.9897C19.2361 11.3286 18.9977 11.7943 18.9429 12.2979C18.8881 12.8015 19.0207 13.3076 19.3154 13.7196C19.6102 14.1316 20.0464 14.4206 20.5407 14.5313L23.2628 15.1295C23.8171 15.2531 24.3064 15.5766 24.6373 16.0381C24.9681 16.4997 25.1173 17.067 25.0563 17.6316C24.9953 18.1963 24.7285 18.7186 24.3067 19.0989C23.8849 19.4792 23.3378 19.6907 22.7699 19.6931H21.2302C20.7524 19.6946 20.286 19.5471 19.8958 19.2711C19.5057 18.9952 19.2113 18.6045 19.0536 18.1534M22 10.4606V8.15381M22 21.9999V19.6931M10.2309 15.7692C10.0473 15.7692 9.87118 15.6962 9.74135 15.5664C9.61151 15.4365 9.53857 15.2605 9.53857 15.0768C9.53857 14.8932 9.61151 14.7171 9.74135 14.5873C9.87118 14.4575 10.0473 14.3845 10.2309 14.3845C10.4145 14.3845 10.5906 14.4575 10.7204 14.5873C10.8502 14.7171 10.9232 14.8932 10.9232 15.0768C10.9232 15.2605 10.8502 15.4365 10.7204 15.5664C10.5906 15.6962 10.4145 15.7692 10.2309 15.7692ZM33.7692 15.7692C33.5856 15.7692 33.4095 15.6962 33.2797 15.5664C33.1498 15.4365 33.0769 15.2605 33.0769 15.0768C33.0769 14.8932 33.1498 14.7171 33.2797 14.5873C33.4095 14.4575 33.5856 14.3845 33.7692 14.3845C33.9528 14.3845 34.1289 14.4575 34.2587 14.5873C34.3886 14.7171 34.4615 14.8932 34.4615 15.0768C34.4615 15.2605 34.3886 15.4365 34.2587 15.5664C34.1289 15.6962 33.9528 15.7692 33.7692 15.7692Z" stroke="#4F46E5" stroke-width="3" stroke-linecap="round" stroke-linejoin="round"/>
  <path d="M37.2306 4H6.76922C6.03477 4 5.33041 4.29176 4.81108 4.81108C4.29176 5.33041 4 6.03477 4 6.76922V23.3845C4 24.1189 4.29176 24.8233 4.81108 25.3426C5.33041 25.862 6.03477 26.1537 6.76922 26.1537H37.2306C37.965 26.1537 38.6694 25.862 39.1887 25.3426C39.708 24.8233 39.9998 24.1189 39.9998 23.3845V6.76922C39.9998 6.03477 39.708 5.33041 39.1887 4.81108C38.6694 4.29176 37.965 4 37.2306 4Z" stroke="#4F46E5" stroke-width="3" stroke-linecap="round" stroke-linejoin="round"/>
</svg>