<svg xmlns="http://www.w3.org/2000/svg" width="42" height="42" viewBox="0 0 42 42" fill="none">
  <path d="M33.7853 20.8291C34.1985 23.9578 33.6212 27.1373 32.1344 29.921C30.6476 32.7047 28.3261 34.9526 25.496 36.349C22.6659 37.7454 19.4695 38.2201 16.3557 37.7064C13.2419 37.1926 10.3674 35.7163 8.13585 33.4848C5.90432 31.2532 4.42798 28.3787 3.91423 25.2649C3.40049 22.1511 3.87516 18.9547 5.27156 16.1246C6.66796 13.2945 8.91592 10.973 11.6996 9.48619C14.4833 7.99941 17.6628 7.4221 20.7915 7.83535V3.9541H18.9165C15.2081 3.9541 11.583 5.05377 8.49957 7.11405C5.41615 9.17432 3.01291 12.1027 1.59377 15.5288C0.174628 18.9549 -0.196684 22.7249 0.526788 26.362C1.25026 29.9992 3.03603 33.3401 5.65826 35.9623C8.28049 38.5846 11.6214 40.3703 15.2586 41.0938C18.8957 41.8173 22.6657 41.446 26.0918 40.0268C29.5179 38.6077 32.4463 36.2045 34.5066 33.121C36.5668 30.0376 37.6665 26.4125 37.6665 22.7041V20.8291H33.7853Z" fill="#6D51FE"/>
  <path d="M36.9517 4.66859C35.404 3.12095 33.5667 1.8933 31.5446 1.05574C29.5225 0.21817 27.3552 -0.21291 25.1665 -0.212891V16.4538H41.8332C41.8332 14.2651 41.4021 12.0978 40.5645 10.0757C39.727 8.05358 38.4993 6.21625 36.9517 4.66859ZM28.8702 4.03526C30.9312 4.65202 32.8066 5.77132 34.3278 7.29251C35.849 8.8137 36.9683 10.6891 37.585 12.7501H28.8702V4.03526Z" fill="#6D51FE"/>
</svg>