<svg xmlns="http://www.w3.org/2000/svg" width="44" height="44" viewBox="0 0 44 44" fill="none">
  <path d="M13.2498 29.6537C14.2311 29.6537 15.1722 29.2379 15.8661 28.4977C16.56 27.7576 16.9498 26.7537 16.9498 25.707C16.9498 24.6602 16.56 23.6564 15.8661 22.9162C15.1722 22.1761 14.2311 21.7603 13.2498 21.7603C12.2685 21.7603 11.3274 22.1761 10.6335 22.9162C9.93962 23.6564 9.5498 24.6602 9.5498 25.707C9.5498 26.7537 9.93962 27.7576 10.6335 28.4977C11.3274 29.2379 12.2685 29.6537 13.2498 29.6537ZM31.7498 29.6537C32.7311 29.6537 33.6722 29.2379 34.3661 28.4977C35.06 27.7576 35.4498 26.7537 35.4498 25.707C35.4498 24.6602 35.06 23.6564 34.3661 22.9162C33.6722 22.1761 32.7311 21.7603 31.7498 21.7603C30.7685 21.7603 29.8274 22.1761 29.1335 22.9162C28.4396 23.6564 28.0498 24.6602 28.0498 25.707C28.0498 26.7537 28.4396 27.7576 29.1335 28.4977C29.8274 29.2379 30.7685 29.6537 31.7498 29.6537Z" stroke="#6D51FE" stroke-width="3" stroke-miterlimit="1.5" stroke-linecap="round" stroke-linejoin="round"/>
  <path d="M26.2 25.7069V5.18401C26.2 4.86999 26.0831 4.56883 25.8749 4.34679C25.6667 4.12474 25.3844 4 25.09 4H5.11C4.81561 4 4.53328 4.12474 4.32511 4.34679C4.11695 4.56883 4 4.86999 4 5.18401V24.5229C4 24.8369 4.11695 25.1381 4.32511 25.3601C4.53328 25.5821 4.81561 25.7069 5.11 25.7069H8.9025M26.2 25.7069H17.0425M26.2 25.7069H28.05M26.2 9.92006H36.5785C36.7931 9.92012 37.003 9.9865 37.1829 10.1112C37.3629 10.2359 37.505 10.4135 37.5923 10.6226L40.9038 18.5712C40.9669 18.7222 40.9997 18.8855 41 19.0508V24.5229C41 24.6784 40.9713 24.8323 40.9155 24.976C40.8597 25.1196 40.778 25.2502 40.6749 25.3601C40.5718 25.47 40.4495 25.5573 40.3148 25.6168C40.1801 25.6763 40.0358 25.7069 39.89 25.7069H36.375" stroke="#6D51FE" stroke-width="3" stroke-linecap="round"/>
  <path d="M5.8501 37.5466H38.6876M5.8501 37.5466L9.0876 41M5.8501 37.5466L9.0876 34.0933M38.6876 37.5466L35.4501 41M38.6876 37.5466L35.4501 34.0933" stroke="#6D51FE" stroke-width="3" stroke-linecap="round" stroke-linejoin="round"/>
</svg>