<svg xmlns="http://www.w3.org/2000/svg" width="40" height="40" viewBox="0 0 40 40" fill="none">
  <path d="M10.545 31.6667C10.3094 31.6667 10.1117 31.5867 9.95167 31.4267C9.79167 31.2667 9.71167 31.0683 9.71167 30.8317C9.71167 30.595 9.79167 30.3972 9.95167 30.2383C10.1117 30.0794 10.3094 30 10.545 30H29.455C29.6917 30 29.8894 30.08 30.0483 30.24C30.2072 30.4 30.2872 30.5983 30.2883 30.835C30.2894 31.0717 30.2094 31.2694 30.0483 31.4283C29.8872 31.5872 29.6894 31.6667 29.455 31.6667H10.545ZM11.84 26.86C11.1844 26.86 10.6133 26.6544 10.1267 26.2433C9.64 25.8322 9.32778 25.31 9.19 24.6767L7.2 14.125C7.14444 14.1472 7.08222 14.1594 7.01333 14.1617C6.94333 14.165 6.88056 14.1667 6.825 14.1667C6.30167 14.1667 5.86667 13.9889 5.52 13.6333C5.17333 13.2778 5 12.8467 5 12.34C5 11.8144 5.17389 11.3678 5.52167 11C5.86833 10.6333 6.30389 10.45 6.82833 10.45C7.35278 10.45 7.79889 10.6333 8.16667 11C8.53333 11.3678 8.71667 11.8144 8.71667 12.34C8.71667 12.4556 8.71222 12.5628 8.70333 12.6617C8.69444 12.7606 8.66167 12.8583 8.605 12.955L13.205 14.8067C13.4183 14.8922 13.6322 14.9033 13.8467 14.84C14.06 14.7756 14.2411 14.6472 14.39 14.455L18.8933 8.355C18.6522 8.19722 18.4611 7.98833 18.32 7.72833C18.1789 7.46944 18.1083 7.19 18.1083 6.89C18.1083 6.36556 18.2922 5.91944 18.66 5.55167C19.0267 5.18389 19.4728 5 19.9983 5C20.5228 5 20.9694 5.18333 21.3383 5.55C21.7072 5.91667 21.8917 6.36111 21.8917 6.88333C21.8917 7.19889 21.8211 7.48333 21.68 7.73667C21.5389 7.99222 21.3478 8.19833 21.1067 8.355L25.61 14.455C25.7589 14.6472 25.94 14.775 26.1533 14.8383C26.3678 14.9039 26.5817 14.8939 26.795 14.8083L31.395 12.955C31.365 12.8661 31.3389 12.7689 31.3167 12.6633C31.2944 12.5567 31.2833 12.4489 31.2833 12.34C31.2833 11.8144 31.4567 11.3678 31.8033 11C32.15 10.6333 32.5856 10.45 33.11 10.45C33.6344 10.45 34.0806 10.6333 34.4483 11C34.8161 11.3678 35 11.8144 35 12.34C35 12.8444 34.8156 13.275 34.4467 13.6317C34.0778 13.9883 33.63 14.1667 33.1033 14.1667C33.0611 14.1667 33.0133 14.16 32.96 14.1467C32.9067 14.1333 32.8478 14.1261 32.7833 14.125L30.81 24.675C30.6711 25.3106 30.3589 25.8333 29.8733 26.2433C29.3878 26.6533 28.8167 26.8589 28.16 26.86H11.84ZM11.8717 25.1933H28.1283C28.3639 25.1933 28.5778 25.1183 28.77 24.9683C28.9622 24.8183 29.0794 24.6261 29.1217 24.3917L31.005 14.965L27.4217 16.375C26.8506 16.6161 26.2711 16.6578 25.6833 16.5C25.0956 16.3422 24.6167 16.0033 24.2467 15.4833L20 9.67333L15.7533 15.4833C15.3833 16.0033 14.9044 16.3422 14.3167 16.5C13.7289 16.6578 13.1489 16.6161 12.5767 16.375L8.99333 14.965L10.8783 24.3917C10.9206 24.6261 11.0378 24.8183 11.23 24.9683C11.4222 25.1183 11.6361 25.1933 11.8717 25.1933Z" fill="#FBBC04"/>
</svg>