<svg xmlns="http://www.w3.org/2000/svg" width="32" height="34" viewBox="0 0 32 34" fill="none">
  <path d="M14.3817 1.23318C14.8767 0.958239 15.4337 0.813965 16 0.813965C16.5663 0.813965 17.1233 0.958239 17.6183 1.23318L30.1433 8.18984C30.403 8.33424 30.6194 8.54544 30.77 8.80155C30.9206 9.05767 31 9.34939 31 9.64651V23.3715C31.0002 23.9662 30.8412 24.5501 30.5397 25.0627C30.2381 25.5752 29.8049 25.9978 29.285 26.2865L17.6183 32.7665C17.1233 33.0414 16.5663 33.1857 16 33.1857C15.4337 33.1857 14.8767 33.0414 14.3817 32.7665L2.715 26.2848C2.19559 25.9964 1.76272 25.5744 1.46119 25.0624C1.15966 24.5505 1.00044 23.9673 1 23.3732V9.64651C0.999988 9.34939 1.0794 9.05767 1.23003 8.80155C1.38065 8.54544 1.59699 8.33424 1.85667 8.18984L14.3817 1.23318Z" stroke="#34C759" stroke-width="1.5" stroke-linecap="round" stroke-linejoin="round"/>
  <path d="M1 8.6665L16 16.9998M16 16.9998L31 8.6665M16 16.9998V33.6665" stroke="#34C759" stroke-width="1.5" stroke-linejoin="round"/>
  <path d="M8.5 12.8333L23.5 4.5M6 17.5467L11 20.3333" stroke="#34C759" stroke-width="1.5" stroke-linecap="round" stroke-linejoin="round"/>
</svg>