<svg xmlns="http://www.w3.org/2000/svg" width="36" height="36" viewBox="0 0 36 36" fill="none">
  <path d="M18.0002 14.9818V21.3335M18.0002 1.3335V6.3335M29.6668 19.6668V9.66683C29.6668 8.78277 29.3156 7.93493 28.6905 7.30981C28.0654 6.68469 27.2176 6.3335 26.3335 6.3335H9.66683C8.78277 6.3335 7.93493 6.68469 7.30981 7.30981C6.68469 7.93493 6.3335 8.78277 6.3335 9.66683V19.6668" stroke="#1A73E8" stroke-width="1.5" stroke-linecap="round" stroke-linejoin="round"/>
  <path d="M30.3001 31.3335C32.0929 28.3078 33.0264 24.8504 33.0001 21.3335L19.3535 15.2685C18.9274 15.0792 18.4663 14.9814 18.0001 14.9814C17.5339 14.9814 17.0729 15.0792 16.6468 15.2685L3.00012 21.3335C2.92297 26.073 4.58965 30.6757 7.68346 34.2669" stroke="#1A73E8" stroke-width="1.5" stroke-linecap="round" stroke-linejoin="round"/>
  <path d="M1.3335 33.0002C2.3335 33.8335 3.3335 34.6668 5.50016 34.6668C9.66683 34.6668 9.66683 31.3335 13.8335 31.3335C16.0002 31.3335 17.0002 32.1668 18.0002 33.0002C19.0002 33.8335 20.0002 34.6668 22.1668 34.6668C26.3335 34.6668 26.3335 31.3335 30.5002 31.3335C32.6668 31.3335 33.6668 32.1668 34.6668 33.0002" stroke="#1A73E8" stroke-width="1.5" stroke-linecap="round" stroke-linejoin="round"/>
</svg>