<svg xmlns="http://www.w3.org/2000/svg" width="100" height="101" viewBox="0 0 100 101" fill="none">
  <path d="M33.3335 8.83301H12.5002C11.3951 8.83301 10.3353 9.27199 9.55388 10.0534C8.77248 10.8348 8.3335 11.8946 8.3335 12.9997V33.833C8.3335 34.9381 8.77248 35.9979 9.55388 36.7793C10.3353 37.5607 11.3951 37.9997 12.5002 37.9997C13.6052 37.9997 14.665 37.5607 15.4464 36.7793C16.2278 35.9979 16.6668 34.9381 16.6668 33.833V17.1663H33.3335C34.4386 17.1663 35.4984 16.7274 36.2798 15.946C37.0612 15.1646 37.5002 14.1047 37.5002 12.9997C37.5002 11.8946 37.0612 10.8348 36.2798 10.0534C35.4984 9.27199 34.4386 8.83301 33.3335 8.83301ZM33.3335 83.833H16.6668V67.1663C16.6668 66.0613 16.2278 65.0015 15.4464 64.2201C14.665 63.4387 13.6052 62.9997 12.5002 62.9997C11.3951 62.9997 10.3353 63.4387 9.55388 64.2201C8.77248 65.0015 8.3335 66.0613 8.3335 67.1663V87.9997C8.3335 89.1048 8.77248 90.1646 9.55388 90.946C10.3353 91.7274 11.3951 92.1664 12.5002 92.1664H33.3335C34.4386 92.1664 35.4984 91.7274 36.2798 90.946C37.0612 90.1646 37.5002 89.1048 37.5002 87.9997C37.5002 86.8946 37.0612 85.8348 36.2798 85.0534C35.4984 84.272 34.4386 83.833 33.3335 83.833ZM87.5002 8.83301H66.6668C65.5618 8.83301 64.502 9.27199 63.7206 10.0534C62.9392 10.8348 62.5002 11.8946 62.5002 12.9997C62.5002 14.1047 62.9392 15.1646 63.7206 15.946C64.502 16.7274 65.5618 17.1663 66.6668 17.1663H83.3335V33.833C83.3335 34.9381 83.7725 35.9979 84.5539 36.7793C85.3353 37.5607 86.3951 37.9997 87.5002 37.9997C88.6052 37.9997 89.665 37.5607 90.4464 36.7793C91.2279 35.9979 91.6668 34.9381 91.6668 33.833V12.9997C91.6668 11.8946 91.2279 10.8348 90.4464 10.0534C89.665 9.27199 88.6052 8.83301 87.5002 8.83301ZM87.5002 62.9997C86.3951 62.9997 85.3353 63.4387 84.5539 64.2201C83.7725 65.0015 83.3335 66.0613 83.3335 67.1663V83.833H66.6668C65.5618 83.833 64.502 84.272 63.7206 85.0534C62.9392 85.8348 62.5002 86.8946 62.5002 87.9997C62.5002 89.1048 62.9392 90.1646 63.7206 90.946C64.502 91.7274 65.5618 92.1664 66.6668 92.1664H87.5002C88.6052 92.1664 89.665 91.7274 90.4464 90.946C91.2279 90.1646 91.6668 89.1048 91.6668 87.9997V67.1663C91.6668 66.0613 91.2279 65.0015 90.4464 64.2201C89.665 63.4387 88.6052 62.9997 87.5002 62.9997Z" fill="white"/>
</svg>