<svg xmlns="http://www.w3.org/2000/svg" width="28" height="28" viewBox="0 0 28 28" fill="none">
  <path d="M22.3217 4.42963C22.2211 4.32855 22.1016 4.24828 21.97 4.1934C21.8384 4.13853 21.6973 4.11013 21.5547 4.10983C21.4121 4.10953 21.2708 4.13733 21.139 4.19164C21.0071 4.24596 20.8873 4.32573 20.7862 4.42639L20.783 4.42963L19.9 5.31261C16.8107 2.22326 10.2835 -0.151918 6.00063 1.57076C4.28769 2.26005 4.80493 3.57911 6.4313 3.6646C10.5108 3.8821 14.3846 6.22373 16.8529 8.36085L1.63334 23.5782C1.44072 23.7609 1.28664 23.9803 1.1802 24.2235C1.07376 24.4667 1.01712 24.7288 1.0136 24.9942C1.01009 25.2596 1.05978 25.5231 1.15974 25.769C1.25971 26.015 1.40792 26.2384 1.59564 26.4261C1.78335 26.6138 2.00677 26.762 2.25269 26.862C2.49862 26.9619 2.76208 27.0116 3.02753 27.0081C3.29297 27.0046 3.55503 26.948 3.79822 26.8415C4.04142 26.7351 4.26083 26.581 4.44351 26.3884L19.6685 11.1656C21.6627 13.4142 23.8626 16.0101 24.5335 19.6091C24.6699 20.3374 24.8257 21.8696 25.7065 21.9746C26.2097 22.0352 26.5592 21.4335 26.7161 20.9401C27.7224 17.762 25.8179 11.1927 22.7124 8.12279L23.5943 7.23981C23.6955 7.13921 23.7759 7.01963 23.8309 6.88791C23.8859 6.75619 23.9143 6.61493 23.9146 6.4722C23.9149 6.32947 23.8871 6.18809 23.8326 6.05614C23.7782 5.92419 23.6983 5.80427 23.5975 5.70325L23.5943 5.70108L22.3217 4.42963Z" stroke="#2E42A5" stroke-width="1.2985" stroke-linecap="round" stroke-linejoin="round"/>
</svg>