<svg xmlns="http://www.w3.org/2000/svg" width="40" height="40" viewBox="0 0 40 40" fill="none">
  <path d="M37.2113 29.1999C37.1332 28.9227 36.9505 28.6867 36.7017 28.5416C36.453 28.3965 36.1577 28.3537 35.878 28.4221L33.1113 29.1665C34.6252 26.9348 35.5432 24.353 35.778 21.6665C36.0049 19.1531 35.6374 16.6215 34.7051 14.2763C33.7728 11.9311 32.302 9.83817 30.4113 8.16652C30.1927 7.98576 29.9133 7.89542 29.6303 7.91401C29.3473 7.9326 29.0821 8.05872 28.8891 8.26653C28.6949 8.48766 28.5963 8.77682 28.6151 9.07054C28.6338 9.36426 28.7683 9.63855 28.9891 9.83319C30.6182 11.2712 31.8857 13.0729 32.6887 15.0921C33.4918 17.1113 33.8079 19.2913 33.6113 21.4554C33.4205 23.7348 32.656 25.9288 31.3891 27.8332L31.1113 25.0443C31.1323 24.8802 31.1163 24.7134 31.0646 24.5563C31.0128 24.3991 30.9267 24.2555 30.8123 24.1359C30.698 24.0163 30.5584 23.9237 30.4037 23.8649C30.249 23.8062 30.0832 23.7827 29.9183 23.7962C29.7534 23.8098 29.5936 23.86 29.4505 23.9431C29.3075 24.0263 29.1849 24.1404 29.0915 24.2771C28.9982 24.4137 28.9366 24.5695 28.9112 24.733C28.8858 24.8965 28.8972 25.0636 28.9446 25.2221L29.5002 32.3776L36.4446 30.5332C36.7197 30.4527 36.9531 30.2691 37.096 30.0206C37.2388 29.7722 37.2802 29.4781 37.2113 29.1999Z" fill="#A168FF"/>
  <path d="M4.78891 18.978C4.93723 19.0717 5.10397 19.1323 5.2778 19.1558C5.56778 19.1938 5.86106 19.116 6.09403 18.9392C6.327 18.7624 6.48086 18.5009 6.52225 18.2113C6.98136 14.8215 8.70409 11.7302 11.3455 9.55657C13.9868 7.38289 17.3519 6.28728 20.7667 6.48913L18.2778 8.18913C18.1017 8.32179 17.9691 8.50385 17.8967 8.71214C17.8244 8.92042 17.8157 9.14551 17.8717 9.35876C17.9277 9.57201 18.0459 9.76379 18.2112 9.90968C18.3765 10.0556 18.5815 10.149 18.8 10.178C19.0503 10.2009 19.301 10.1382 19.5111 10.0002L25.4334 5.93357L20.3667 0.844681C20.2765 0.706528 20.1567 0.590185 20.016 0.504098C19.8753 0.418011 19.7171 0.364342 19.5531 0.346986C19.389 0.329631 19.2232 0.349024 19.0675 0.403759C18.9119 0.458494 18.7704 0.547196 18.6534 0.663426C18.5363 0.779656 18.4466 0.920497 18.3907 1.07572C18.3349 1.23095 18.3143 1.39667 18.3304 1.56084C18.3466 1.72502 18.3991 1.88354 18.4842 2.02488C18.5693 2.16623 18.6847 2.28686 18.8222 2.37801L20.7111 4.2669C16.7676 4.07834 12.8967 5.37509 9.86256 7.90114C6.82842 10.4272 4.85156 13.999 4.32225 17.9113C4.29376 18.1149 4.3223 18.3224 4.40468 18.5107C4.48707 18.699 4.62008 18.8608 4.78891 18.978Z" fill="#A168FF"/>
  <path d="M24.1445 33.2557C22.4094 33.8099 20.5792 34.0028 18.7667 33.8224C16.5594 33.606 14.4378 32.8557 12.5852 31.6361C10.7327 30.4165 9.20475 28.7644 8.1334 26.8224L10.9001 27.8557C11.1551 27.9 11.4176 27.8538 11.6422 27.7251C11.8668 27.5965 12.0394 27.3934 12.1303 27.1511C12.2212 26.9087 12.2246 26.6422 12.14 26.3976C12.0553 26.153 11.888 25.9456 11.6667 25.8113L6.56673 23.9224L4.9334 23.3335L3.70006 30.3891C3.65731 30.671 3.72459 30.9586 3.88798 31.1923C4.05137 31.426 4.29836 31.5879 4.57784 31.6446H4.76673C5.02824 31.6494 5.28305 31.5617 5.48629 31.3971C5.68954 31.2325 5.82819 31.0014 5.87784 30.7446L6.34451 28.0779C7.6012 30.2794 9.36637 32.1482 11.4926 33.5283C13.6188 34.9084 16.0444 35.7597 18.5667 36.0113C20.6756 36.2206 22.8049 35.9937 24.8223 35.3446C25.0792 35.2382 25.2868 35.0394 25.4043 34.7874C25.5217 34.5354 25.5405 34.2486 25.4567 33.9834C25.373 33.7183 25.1929 33.4942 24.9521 33.3554C24.7112 33.2165 24.427 33.173 24.1556 33.2335L24.1445 33.2557Z" fill="#A168FF"/>
  <path d="M24.4443 14.4443H15.5554C15.2608 14.4443 14.9781 14.5614 14.7698 14.7698C14.5614 14.9781 14.4443 15.2608 14.4443 15.5554V24.4443C14.4443 24.739 14.5614 25.0216 14.7698 25.23C14.9781 25.4384 15.2608 25.5554 15.5554 25.5554H24.4443C24.739 25.5554 25.0216 25.4384 25.23 25.23C25.4384 25.0216 25.5554 24.739 25.5554 24.4443V15.5554C25.5554 15.2608 25.4384 14.9781 25.23 14.7698C25.0216 14.5614 24.739 14.4443 24.4443 14.4443ZM23.3332 23.3332H16.6666V16.6666H23.3332V23.3332Z" fill="#A168FF"/>
</svg>