<svg xmlns="http://www.w3.org/2000/svg" width="36" height="24" viewBox="0 0 36 24" fill="none">
  <path d="M9.66659 22.6667C10.5506 22.6667 11.3985 22.3155 12.0236 21.6904C12.6487 21.0652 12.9999 20.2174 12.9999 19.3333C12.9999 18.4493 12.6487 17.6014 12.0236 16.9763C11.3985 16.3512 10.5506 16 9.66659 16C8.78253 16 7.93468 16.3512 7.30956 16.9763C6.68444 17.6014 6.33325 18.4493 6.33325 19.3333C6.33325 20.2174 6.68444 21.0652 7.30956 21.6904C7.93468 22.3155 8.78253 22.6667 9.66659 22.6667ZM26.3333 22.6667C27.2173 22.6667 28.0652 22.3155 28.6903 21.6904C29.3154 21.0652 29.6666 20.2174 29.6666 19.3333C29.6666 18.4493 29.3154 17.6014 28.6903 16.9763C28.0652 16.3512 27.2173 16 26.3333 16C25.4492 16 24.6014 16.3512 23.9762 16.9763C23.3511 17.6014 22.9999 18.4493 22.9999 19.3333C22.9999 20.2174 23.3511 21.0652 23.9762 21.6904C24.6014 22.3155 25.4492 22.6667 26.3333 22.6667Z" stroke="#E31D1C" stroke-width="1.5" stroke-miterlimit="1.5" stroke-linecap="round" stroke-linejoin="round"/>
  <path d="M21.3333 19.3333V2C21.3333 1.73478 21.2279 1.48043 21.0404 1.29289C20.8528 1.10536 20.5985 1 20.3333 1H2.33325C2.06804 1 1.81368 1.10536 1.62615 1.29289C1.43861 1.48043 1.33325 1.73478 1.33325 2V18.3333C1.33325 18.4647 1.35912 18.5947 1.40937 18.716C1.45963 18.8373 1.53329 18.9476 1.62615 19.0404C1.719 19.1333 1.82924 19.207 1.95057 19.2572C2.07189 19.3075 2.20193 19.3333 2.33325 19.3333H5.74992M21.3333 19.3333H13.0833M21.3333 19.3333H22.9999M21.3333 6H30.6833C30.8765 6.00005 31.0657 6.05612 31.2278 6.16142C31.3899 6.26672 31.518 6.41674 31.5966 6.59333L34.5799 13.3067C34.6368 13.4341 34.6663 13.5721 34.6666 13.7117V18.3333C34.6666 18.4647 34.6407 18.5947 34.5905 18.716C34.5402 18.8373 34.4666 18.9476 34.3737 19.0404C34.2808 19.1333 34.1706 19.207 34.0493 19.2572C33.9279 19.3075 33.7979 19.3333 33.6666 19.3333H30.4999" stroke="#E31D1C" stroke-width="1.5" stroke-linecap="round"/>
</svg>